<svg height="512pt" viewBox="0 0 512 512" width="512pt" xmlns="http://www.w3.org/2000/svg"><path d="m354.460938 374.152344h-29.539063c-24.429687 0-44.304687 19.878906-44.304687 44.308594v29.539062c0 8.15625 6.609374 14.769531 14.765624 14.769531 8.160157 0 14.769532-6.613281 14.769532-14.769531v-29.539062c0-8.144532 6.628906-14.769532 14.769531-14.769532h29.539063c8.15625 0 14.769531-6.613281 14.769531-14.769531s-6.613281-14.769531-14.769531-14.769531zm0 0"/><path d="m187.078125 374.152344h-29.539063c-8.15625 0-14.769531 6.613281-14.769531 14.769531s6.613281 14.769531 14.769531 14.769531h29.539063c8.140625 0 14.769531 6.625 14.769531 14.769532v29.539062c0 8.15625 6.609375 14.769531 14.769532 14.769531 8.15625 0 14.765624-6.613281 14.765624-14.769531v-29.539062c0-24.429688-19.875-44.308594-44.304687-44.308594zm0 0"/><path d="m290.460938 246.152344v49.230468c0 8.160157 6.613281 14.769532 14.769531 14.769532s14.769531-6.609375 14.769531-14.769532v-24.613281h24.617188c8.15625 0 14.765624-6.613281 14.765624-14.769531s-6.609374-14.769531-14.765624-14.769531h-24.898438c-2.457031-22.121094-21.257812-39.382813-44.027344-39.382813h-19.691406c-8.15625 0-14.769531 6.609375-14.769531 14.769532v64h-4.921875c-8.144532 0-14.769532-6.628907-14.769532-14.769532v-49.230468c0-8.160157-6.613281-14.769532-14.769531-14.769532s-14.769531 6.609375-14.769531 14.769532v24.613281h-24.617188c-8.15625 0-14.765624 6.613281-14.765624 14.769531s6.609374 14.769531 14.765624 14.769531h24.898438c2.457031 22.121094 21.257812 39.382813 44.027344 39.382813h19.691406c8.15625 0 14.769531-6.609375 14.769531-14.769532v-64h4.921875c8.144532 0 14.769532 6.628907 14.769532 14.769532zm0 0"/><path d="m467.691406 0h-423.382812c-24.433594 0-44.308594 19.875-44.308594 44.308594v83.691406c0 24.429688 19.875 44.308594 44.308594 44.308594h49.230468v324.921875c0 8.15625 6.613282 14.769531 14.769532 14.769531h295.382812c8.15625 0 14.769532-6.613281 14.769532-14.769531v-324.921875h49.230468c24.433594 0 44.308594-19.878906 44.308594-44.308594v-83.691406c0-24.433594-19.875-44.308594-44.308594-44.308594zm-423.382812 29.539062h423.382812c8.144532 0 14.769532 6.625 14.769532 14.769532v49.230468h-452.921876v-49.230468c0-8.144532 6.625-14.769532 14.769532-14.769532zm0 113.230469c-8.144532 0-14.769532-6.625-14.769532-14.769531v-4.921875h64v19.691406zm344.613281 339.691407h-265.84375v-359.382813h265.84375zm78.769531-339.691407h-49.230468v-19.691406h64v4.921875c0 8.144531-6.625 14.769531-14.769532 14.769531zm0 0"/></svg>