<svg height="512" viewBox="0 0 74 74" width="512" xmlns="http://www.w3.org/2000/svg"><g id="line_icons" data-name="line icons"><path d="m34.935 69.485a10.288 10.288 0 0 1 -4.264-.922l-14.205-6.463a1 1 0 0 1 .828-1.821l14.206 6.464a8.335 8.335 0 0 0 8.265-.8l29.135-20.726a2.619 2.619 0 0 0 -2.383-4.6l-21.11 7.289a1 1 0 1 1 -.653-1.891l21.116-7.3a4.619 4.619 0 0 1 4.18 8.132l-29.125 20.728a10.32 10.32 0 0 1 -5.99 1.91z"/><path d="m31.367 51.686a1 1 0 0 1 -.236-1.972l12.244-2.985a2.816 2.816 0 0 0 -.762-5.525l-11.227.2a1.083 1.083 0 0 1 -.48-.113l-4.031-2.1a18.692 18.692 0 0 0 -9.648-2.1l-.307.013a.989.989 0 0 1 -1.039-.959 1 1 0 0 1 .959-1.04l.294-.011a20.649 20.649 0 0 1 10.666 2.321l3.8 1.984 10.967-.2a4.816 4.816 0 0 1 1.3 9.462l-12.262 2.996a1.026 1.026 0 0 1 -.238.029z"/><path d="m14.346 64.562h-8.812a3.538 3.538 0 0 1 -3.534-3.534v-26.169a3.537 3.537 0 0 1 3.534-3.533h8.812a3.538 3.538 0 0 1 3.534 3.533v26.169a3.538 3.538 0 0 1 -3.534 3.534zm-8.812-31.236a1.535 1.535 0 0 0 -1.534 1.533v26.169a1.536 1.536 0 0 0 1.534 1.534h8.812a1.536 1.536 0 0 0 1.534-1.534v-26.169a1.535 1.535 0 0 0 -1.534-1.533z"/><path d="m61.646 42.238a1 1 0 0 1 -.916-1.4c1.88-4.31-3.851-14.142-9.97-22.085h-9.625c-2.985 3.889-10.876 14.8-10.3 20.736a1 1 0 0 1 -1.99.192c-.653-6.735 7.522-18.058 11.067-22.614a1 1 0 0 1 1.1-.334.506.506 0 0 0 .159.021h9.519a.5.5 0 0 0 .167-.024 1 1 0 0 1 1.121.329c4.107 5.27 13.362 18.215 10.585 24.579a1 1 0 0 1 -.917.6z"/><path d="m51.189 15.405a1.014 1.014 0 0 1 -.329-.055.512.512 0 0 0 -.17-.025h-9.515a.542.542 0 0 0 -.146.015 1 1 0 0 1 -1.151-.465l-3.147-5.538a2.944 2.944 0 0 1 .252-3.137 2.91 2.91 0 0 1 2.888-1.121l.59.113a3.431 3.431 0 0 0 1.522.007l2.517-.561a5.463 5.463 0 0 1 3.178.257l1.633.632a3.489 3.489 0 0 0 2.376.064 2.934 2.934 0 0 1 3.459 4.14c-.01.02-.021.04-.032.06l-3.068 5.127a1 1 0 0 1 -.857.487zm-9.889-2.08h9.37l2.708-4.525a.9.9 0 0 0 -.047-.882.938.938 0 0 0 -1.039-.418 5.455 5.455 0 0 1 -3.709-.107l-1.636-.634a3.463 3.463 0 0 0 -2.02-.164l-2.506.554a5.37 5.37 0 0 1 -2.37 0l-.551-.11a.941.941 0 0 0 -1 1.353z"/><path d="m46.025 39.853a7.31 7.31 0 1 1 7.309-7.31 7.318 7.318 0 0 1 -7.309 7.31zm0-12.619a5.31 5.31 0 1 0 5.309 5.309 5.316 5.316 0 0 0 -5.309-5.309z"/><path d="m45.69 36.109v-.516a2.859 2.859 0 0 1 -1.507-.434l.236-.66a2.62 2.62 0 0 0 1.419.424c.7 0 1.172-.4 1.172-.966 0-.542-.384-.877-1.113-1.173-1-.393-1.626-.847-1.626-1.7a1.616 1.616 0 0 1 1.488-1.587v-.516h.611v.477a2.628 2.628 0 0 1 1.281.345l-.246.65a2.385 2.385 0 0 0 -1.242-.335c-.759 0-1.045.454-1.045.848 0 .512.365.768 1.222 1.123 1.015.414 1.528.926 1.528 1.8a1.713 1.713 0 0 1 -1.557 1.675v.546z"/><path d="m46.311 36.359h-.621a.25.25 0 0 1 -.25-.25v-.279a3.018 3.018 0 0 1 -1.4-.468.25.25 0 0 1 -.09-.287l.237-.66a.247.247 0 0 1 .156-.153.251.251 0 0 1 .218.029 2.356 2.356 0 0 0 1.28.382c.552 0 .922-.288.922-.716 0-.287-.116-.6-.957-.94-.88-.346-1.782-.846-1.782-1.937a1.825 1.825 0 0 1 1.488-1.79v-.312a.249.249 0 0 1 .25-.25h.611a.249.249 0 0 1 .25.25v.242a2.785 2.785 0 0 1 1.157.363.251.251 0 0 1 .108.3l-.246.651a.253.253 0 0 1 -.15.147.26.26 0 0 1 -.208-.018 2.132 2.132 0 0 0 -1.118-.3c-.586 0-.794.309-.794.6 0 .312.154.516 1.067.893a2.214 2.214 0 0 1 1.682 2.034 1.938 1.938 0 0 1 -1.557 1.879v.342a.25.25 0 0 1 -.253.248zm-.371-.5h.121v-.3a.249.249 0 0 1 .209-.246 1.467 1.467 0 0 0 1.348-1.429c0-.719-.4-1.174-1.372-1.572-.781-.322-1.377-.627-1.377-1.355a1.138 1.138 0 0 1 1.294-1.1 2.676 2.676 0 0 1 1.108.234l.067-.18a2.491 2.491 0 0 0 -.977-.214.25.25 0 0 1 -.241-.25v-.226h-.111v.265a.25.25 0 0 1 -.209.247 1.365 1.365 0 0 0 -1.279 1.34c0 .646.411 1.058 1.467 1.472.594.24 1.272.616 1.272 1.405a1.287 1.287 0 0 1 -1.422 1.216 2.9 2.9 0 0 1 -1.285-.307l-.067.187a2.845 2.845 0 0 0 1.208.29.251.251 0 0 1 .246.25z"/><path d="m50.69 18.754h-9.515a2.5 2.5 0 0 1 -.792-.124 2.7 2.7 0 0 1 -1.923-2.59 2.692 2.692 0 0 1 2.057-2.632 2.4 2.4 0 0 1 .658-.083h9.515a2.518 2.518 0 0 1 .828.136 2.706 2.706 0 0 1 1.086 4.5 2.658 2.658 0 0 1 -1.134.671 2.393 2.393 0 0 1 -.78.122zm-9.515-3.429a.542.542 0 0 0 -.146.015.788.788 0 0 0 -.377.2.74.74 0 0 0 -.192.5.706.706 0 0 0 .51.679.6.6 0 0 0 .2.035h9.52a.5.5 0 0 0 .167-.024.729.729 0 0 0 .333-.182.707.707 0 0 0 -.288-1.185.614.614 0 0 0 -.212-.038z"/></g></svg>