<svg id="Capa_1" enable-background="new 0 0 512 512" height="512" viewBox="0 0 512 512" width="512" xmlns="http://www.w3.org/2000/svg"><g><path d="m444.7 81h-377.4c-37.11 0-67.3 30.19-67.3 67.3v215.4c0 37.11 30.19 67.3 67.3 67.3h377.4c37.11 0 67.3-30.19 67.3-67.3v-215.4c0-37.11-30.19-67.3-67.3-67.3zm-310.9 261.97v8.74c0 8.28-6.72 15-15 15-8.29 0-15-6.72-15-15v-7.31c-11.13-1.16-20.2-4.39-32.53-12.46-6.94-4.53-8.88-13.83-4.34-20.76 4.53-6.94 13.83-8.88 20.76-4.35 6.53 4.28 10.85 6.35 16.11 7.33v-55.25c-8.45-3.92-14.82-7.72-20.09-11.85-25.83-20.26-17.27-68.82 20.09-79.12v-7.49c0-8.29 6.71-15 15-15 8.28 0 15 6.71 15 15v6.47c15.88 3.37 25.87 12.34 25.69 12.53 10.04 9.18 3.61 26.05-10.1 26.05-3.95 0-7.53-1.54-10.21-4.03 0 0-1.98-1.63-5.38-3.16v40.48c2.12.79 4.24 1.55 6.33 2.29 51.73 18.28 42.55 88.67-6.33 101.89zm210.2 24.03h-88c-8.28 0-15-6.72-15-15s6.72-15 15-15h88c8.28 0 15 6.72 15 15s-6.72 15-15 15zm88-64h-176c-8.28 0-15-6.72-15-15s6.72-15 15-15h176c8.28 0 15 6.72 15 15s-6.72 15-15 15zm0-64h-176c-8.28 0-15-6.72-15-15s6.72-15 15-15h176c8.28 0 15 6.72 15 15s-6.72 15-15 15zm0-64h-88c-8.28 0-15-6.72-15-15s6.72-15 15-15h88c8.28 0 15 6.72 15 15s-6.72 15-15 15z"/><path d="m102.22 223.45c.5.4 1.03.78 1.58 1.17v-23c-6.42 7.1-6.2 18.21-1.58 21.83z"/><path d="m133.8 270.93v39.36c13.23-9.35 16.49-30.96 0-39.36z"/></g></svg>